<mxfile host="app.diagrams.net" modified="2022-09-05T02:25:32.411Z" agent="5.0 (Macintosh; Intel Mac OS X 10_15_7) AppleWebKit/537.36 (KHTML, like Gecko) Chrome/104.0.0.0 Safari/537.36" etag="ivVyRpGwl2fiqEq4to_-" version="20.2.8" type="github">
  <diagram id="C5RBs43oDa-KdzZeNtuy" name="Page-1">
    <mxGraphModel dx="891" dy="438" grid="1" gridSize="10" guides="1" tooltips="1" connect="1" arrows="1" fold="1" page="1" pageScale="1" pageWidth="827" pageHeight="1169" math="0" shadow="0">
      <root>
        <mxCell id="WIyWlLk6GJQsqaUBKTNV-0" />
        <mxCell id="WIyWlLk6GJQsqaUBKTNV-1" parent="WIyWlLk6GJQsqaUBKTNV-0" />
        <mxCell id="Ni7bxn2DUjmmPI4IMF6q-0" value="เริ่มต้น" style="ellipse;whiteSpace=wrap;html=1;rounded=1;glass=0;strokeWidth=1;shadow=0;" parent="WIyWlLk6GJQsqaUBKTNV-1" vertex="1">
          <mxGeometry x="59.2283870967742" y="27.692307692307693" width="84.17032258064516" height="30.76923076923077" as="geometry" />
        </mxCell>
        <mxCell id="Ni7bxn2DUjmmPI4IMF6q-4" value="สิ้นสุด" style="ellipse;whiteSpace=wrap;html=1;rounded=1;glass=0;strokeWidth=1;shadow=0;" parent="WIyWlLk6GJQsqaUBKTNV-1" vertex="1">
          <mxGeometry x="690.505806451613" y="70" width="79.4941935483871" height="30.76923076923077" as="geometry" />
        </mxCell>
        <mxCell id="Ni7bxn2DUjmmPI4IMF6q-17" value="&lt;meta charset=&quot;utf-8&quot;&gt;&lt;span style=&quot;color: rgb(0, 0, 0); font-family: Helvetica; font-size: 12px; font-style: normal; font-variant-ligatures: normal; font-variant-caps: normal; font-weight: 400; letter-spacing: normal; orphans: 2; text-align: center; text-indent: 0px; text-transform: none; widows: 2; word-spacing: 0px; -webkit-text-stroke-width: 0px; background-color: rgb(248, 249, 250); text-decoration-thickness: initial; text-decoration-style: initial; text-decoration-color: initial; float: none; display: inline !important;&quot;&gt;ดึงข้อมูลจาก Table&lt;/span&gt;&lt;br style=&quot;color: rgb(0, 0, 0); font-family: Helvetica; font-size: 12px; font-style: normal; font-variant-ligatures: normal; font-variant-caps: normal; font-weight: 400; letter-spacing: normal; orphans: 2; text-align: center; text-indent: 0px; text-transform: none; widows: 2; word-spacing: 0px; -webkit-text-stroke-width: 0px; background-color: rgb(248, 249, 250); text-decoration-thickness: initial; text-decoration-style: initial; text-decoration-color: initial;&quot;&gt;&lt;span style=&quot;color: rgb(0, 0, 0); font-family: Helvetica; font-size: 12px; font-style: normal; font-variant-ligatures: normal; font-variant-caps: normal; font-weight: 400; letter-spacing: normal; orphans: 2; text-align: center; text-indent: 0px; text-transform: none; widows: 2; word-spacing: 0px; -webkit-text-stroke-width: 0px; background-color: rgb(248, 249, 250); text-decoration-thickness: initial; text-decoration-style: initial; text-decoration-color: initial; float: none; display: inline !important;&quot;&gt;Config&lt;/span&gt;" style="rounded=1;whiteSpace=wrap;html=1;" parent="WIyWlLk6GJQsqaUBKTNV-1" vertex="1">
          <mxGeometry x="45.2" y="120" width="112.22709677419354" height="46.15384615384615" as="geometry" />
        </mxCell>
        <mxCell id="s2NbmrhvSSgWTOLfbfG7-0" style="edgeStyle=orthogonalEdgeStyle;rounded=0;orthogonalLoop=1;jettySize=auto;html=1;entryX=0.5;entryY=0;entryDx=0;entryDy=0;" parent="WIyWlLk6GJQsqaUBKTNV-1" source="Ni7bxn2DUjmmPI4IMF6q-0" target="Ni7bxn2DUjmmPI4IMF6q-17" edge="1">
          <mxGeometry relative="1" as="geometry">
            <mxPoint x="100" y="110" as="targetPoint" />
          </mxGeometry>
        </mxCell>
        <mxCell id="Ni7bxn2DUjmmPI4IMF6q-22" value="ส่ง Error code 500" style="whiteSpace=wrap;html=1;rounded=1;" parent="WIyWlLk6GJQsqaUBKTNV-1" vertex="1">
          <mxGeometry x="321.0916129032258" y="77.6923076923077" width="112.22709677419354" height="46.15384615384615" as="geometry" />
        </mxCell>
        <mxCell id="Ni7bxn2DUjmmPI4IMF6q-24" value="ตรวจสอบข้อมูล" style="whiteSpace=wrap;html=1;rounded=1;" parent="WIyWlLk6GJQsqaUBKTNV-1" vertex="1">
          <mxGeometry x="45.2" y="330.7692307692308" width="112.22709677419354" height="46.15384615384615" as="geometry" />
        </mxCell>
        <mxCell id="Ni7bxn2DUjmmPI4IMF6q-35" style="edgeStyle=orthogonalEdgeStyle;rounded=0;orthogonalLoop=1;jettySize=auto;html=1;entryX=0;entryY=0.5;entryDx=0;entryDy=0;endArrow=classic;endFill=1;" parent="WIyWlLk6GJQsqaUBKTNV-1" source="Ni7bxn2DUjmmPI4IMF6q-33" target="Ni7bxn2DUjmmPI4IMF6q-22" edge="1">
          <mxGeometry relative="1" as="geometry" />
        </mxCell>
        <mxCell id="Ni7bxn2DUjmmPI4IMF6q-37" value="" style="edgeStyle=orthogonalEdgeStyle;rounded=0;orthogonalLoop=1;jettySize=auto;html=1;endArrow=classic;endFill=1;" parent="WIyWlLk6GJQsqaUBKTNV-1" source="Ni7bxn2DUjmmPI4IMF6q-33" target="Ni7bxn2DUjmmPI4IMF6q-24" edge="1">
          <mxGeometry relative="1" as="geometry" />
        </mxCell>
        <mxCell id="Ni7bxn2DUjmmPI4IMF6q-33" value="ดึงข้อมูล" style="rhombus;whiteSpace=wrap;html=1;rounded=1;" parent="WIyWlLk6GJQsqaUBKTNV-1" vertex="1">
          <mxGeometry x="63.90451612903226" y="220" width="74.81806451612903" height="61.53846153846154" as="geometry" />
        </mxCell>
        <mxCell id="Ni7bxn2DUjmmPI4IMF6q-34" value="" style="edgeStyle=orthogonalEdgeStyle;rounded=0;orthogonalLoop=1;jettySize=auto;html=1;endArrow=classic;endFill=1;" parent="WIyWlLk6GJQsqaUBKTNV-1" source="Ni7bxn2DUjmmPI4IMF6q-17" target="Ni7bxn2DUjmmPI4IMF6q-33" edge="1">
          <mxGeometry relative="1" as="geometry" />
        </mxCell>
        <mxCell id="Ni7bxn2DUjmmPI4IMF6q-36" value="ไม่สำเร็จ" style="text;html=1;align=center;verticalAlign=middle;resizable=0;points=[];autosize=1;strokeColor=none;fillColor=none;" parent="WIyWlLk6GJQsqaUBKTNV-1" vertex="1">
          <mxGeometry x="138.7225806451613" y="216.1538461538462" width="70" height="30" as="geometry" />
        </mxCell>
        <mxCell id="Ni7bxn2DUjmmPI4IMF6q-38" value="สำเร็จ" style="text;html=1;align=center;verticalAlign=middle;resizable=0;points=[];autosize=1;strokeColor=none;fillColor=none;" parent="WIyWlLk6GJQsqaUBKTNV-1" vertex="1">
          <mxGeometry x="110.66580645161291" y="296.9230769230769" width="50" height="30" as="geometry" />
        </mxCell>
        <mxCell id="Ni7bxn2DUjmmPI4IMF6q-43" value="มีข้อมูล" style="rhombus;whiteSpace=wrap;html=1;rounded=1;" parent="WIyWlLk6GJQsqaUBKTNV-1" vertex="1">
          <mxGeometry x="311.7393548387097" y="323.0769230769231" width="74.81806451612903" height="61.53846153846154" as="geometry" />
        </mxCell>
        <mxCell id="Ni7bxn2DUjmmPI4IMF6q-44" value="" style="edgeStyle=orthogonalEdgeStyle;rounded=0;orthogonalLoop=1;jettySize=auto;html=1;endArrow=classic;endFill=1;" parent="WIyWlLk6GJQsqaUBKTNV-1" source="Ni7bxn2DUjmmPI4IMF6q-24" target="Ni7bxn2DUjmmPI4IMF6q-43" edge="1">
          <mxGeometry relative="1" as="geometry" />
        </mxCell>
        <mxCell id="Ni7bxn2DUjmmPI4IMF6q-46" value="ส่ง Error code 404" style="whiteSpace=wrap;html=1;rounded=1;" parent="WIyWlLk6GJQsqaUBKTNV-1" vertex="1">
          <mxGeometry x="321.0916129032258" y="150.76923076923077" width="112.22709677419354" height="46.15384615384615" as="geometry" />
        </mxCell>
        <mxCell id="Ni7bxn2DUjmmPI4IMF6q-47" value="" style="edgeStyle=orthogonalEdgeStyle;rounded=0;orthogonalLoop=1;jettySize=auto;html=1;endArrow=classic;endFill=1;" parent="WIyWlLk6GJQsqaUBKTNV-1" source="Ni7bxn2DUjmmPI4IMF6q-43" target="Ni7bxn2DUjmmPI4IMF6q-46" edge="1">
          <mxGeometry relative="1" as="geometry">
            <Array as="points">
              <mxPoint x="349.1483870967742" y="304.61538461538464" />
              <mxPoint x="274.33032258064515" y="304.61538461538464" />
              <mxPoint x="274.33032258064515" y="173.84615384615387" />
            </Array>
          </mxGeometry>
        </mxCell>
        <mxCell id="Ni7bxn2DUjmmPI4IMF6q-49" value="ไม่พบข้อมูล" style="text;html=1;align=center;verticalAlign=middle;resizable=0;points=[];autosize=1;strokeColor=none;fillColor=none;" parent="WIyWlLk6GJQsqaUBKTNV-1" vertex="1">
          <mxGeometry x="283.6825806451613" y="273.84615384615387" width="80" height="30" as="geometry" />
        </mxCell>
        <mxCell id="Ni7bxn2DUjmmPI4IMF6q-52" value="พบข้อมูล" style="text;html=1;align=center;verticalAlign=middle;resizable=0;points=[];autosize=1;strokeColor=none;fillColor=none;" parent="WIyWlLk6GJQsqaUBKTNV-1" vertex="1">
          <mxGeometry x="376.26993548387094" y="353.84615384615387" width="70" height="30" as="geometry" />
        </mxCell>
        <mxCell id="Ni7bxn2DUjmmPI4IMF6q-53" value="ส่งกลับข้อมูลการประชุม" style="whiteSpace=wrap;html=1;rounded=1;" parent="WIyWlLk6GJQsqaUBKTNV-1" vertex="1">
          <mxGeometry x="452.0232258064516" y="250.76923076923077" width="112.22709677419354" height="46.15384615384615" as="geometry" />
        </mxCell>
        <mxCell id="Ni7bxn2DUjmmPI4IMF6q-51" value="" style="edgeStyle=orthogonalEdgeStyle;rounded=0;orthogonalLoop=1;jettySize=auto;html=1;endArrow=classic;endFill=1;entryX=0.5;entryY=0;entryDx=0;entryDy=0;" parent="WIyWlLk6GJQsqaUBKTNV-1" source="Ni7bxn2DUjmmPI4IMF6q-43" target="Ni7bxn2DUjmmPI4IMF6q-53" edge="1">
          <mxGeometry relative="1" as="geometry">
            <mxPoint x="101.31354838709677" y="512.3076923076924" as="targetPoint" />
          </mxGeometry>
        </mxCell>
        <mxCell id="Ni7bxn2DUjmmPI4IMF6q-58" value="" style="edgeStyle=orthogonalEdgeStyle;rounded=0;orthogonalLoop=1;jettySize=auto;html=1;endArrow=classic;endFill=1;" parent="WIyWlLk6GJQsqaUBKTNV-1" source="Ni7bxn2DUjmmPI4IMF6q-56" target="Ni7bxn2DUjmmPI4IMF6q-4" edge="1">
          <mxGeometry relative="1" as="geometry" />
        </mxCell>
        <mxCell id="Ni7bxn2DUjmmPI4IMF6q-56" value="" style="ellipse;whiteSpace=wrap;html=1;aspect=fixed;" parent="WIyWlLk6GJQsqaUBKTNV-1" vertex="1">
          <mxGeometry x="592.3070967741935" y="73.84615384615384" width="21.58213399503722" height="21.58213399503722" as="geometry" />
        </mxCell>
        <mxCell id="Ni7bxn2DUjmmPI4IMF6q-27" style="edgeStyle=orthogonalEdgeStyle;rounded=0;orthogonalLoop=1;jettySize=auto;html=1;entryX=0;entryY=0.5;entryDx=0;entryDy=0;endArrow=classic;endFill=1;" parent="WIyWlLk6GJQsqaUBKTNV-1" source="Ni7bxn2DUjmmPI4IMF6q-22" target="Ni7bxn2DUjmmPI4IMF6q-56" edge="1">
          <mxGeometry relative="1" as="geometry" />
        </mxCell>
        <mxCell id="Ni7bxn2DUjmmPI4IMF6q-48" style="edgeStyle=orthogonalEdgeStyle;rounded=0;orthogonalLoop=1;jettySize=auto;html=1;entryX=0;entryY=1;entryDx=0;entryDy=0;endArrow=classic;endFill=1;" parent="WIyWlLk6GJQsqaUBKTNV-1" source="Ni7bxn2DUjmmPI4IMF6q-46" target="Ni7bxn2DUjmmPI4IMF6q-56" edge="1">
          <mxGeometry relative="1" as="geometry" />
        </mxCell>
        <mxCell id="Ni7bxn2DUjmmPI4IMF6q-57" style="edgeStyle=orthogonalEdgeStyle;rounded=0;orthogonalLoop=1;jettySize=auto;html=1;entryX=1;entryY=1;entryDx=0;entryDy=0;endArrow=classic;endFill=1;" parent="WIyWlLk6GJQsqaUBKTNV-1" source="Ni7bxn2DUjmmPI4IMF6q-53" target="Ni7bxn2DUjmmPI4IMF6q-56" edge="1">
          <mxGeometry relative="1" as="geometry" />
        </mxCell>
      </root>
    </mxGraphModel>
  </diagram>
</mxfile>
